<svg xmlns="http://www.w3.org/2000/svg" width="500" height="400" viewBox="0 0 500 400">
  <!-- Background Elements -->
  <rect x="0" y="0" width="500" height="400" fill="#f8f9fa" opacity="0.1" />
  <circle cx="400" cy="80" r="60" fill="#e8f0fe" />
  <circle cx="100" cy="320" r="40" fill="#e8f0fe" />
  
  <!-- Aadhaar Card -->
  <rect x="150" y="100" width="200" height="130" rx="10" fill="white" stroke="#1a73e8" stroke-width="3" />
  <rect x="170" y="120" width="60" height="60" rx="5" fill="#e8f0fe" />
  <circle cx="200" cy="140" r="15" fill="#1a73e8" />
  <rect x="170" y="190" width="60" height="5" rx="2" fill="#1a73e8" />
  <rect x="170" y="200" width="40" height="5" rx="2" fill="#1a73e8" />
  
  <!-- Aadhaar Number -->
  <rect x="240" y="130" width="90" height="10" rx="2" fill="#dadce0" />
  <rect x="240" y="150" width="90" height="10" rx="2" fill="#dadce0" />
  <rect x="240" y="170" width="90" height="10" rx="2" fill="#dadce0" />
  
  <!-- Bank Account -->
  <rect x="150" y="250" width="200" height="100" rx="10" fill="white" stroke="#34a853" stroke-width="3" />
  <rect x="170" y="270" width="160" height="15" rx="2" fill="#e8f0fe" />
  <rect x="170" y="295" width="160" height="15" rx="2" fill="#e8f0fe" />
  <rect x="170" y="320" width="80" height="15" rx="2" fill="#e8f0fe" />
  
  <!-- Connection Line -->
  <path d="M250 230 L250 250" stroke="#1a73e8" stroke-width="3" stroke-dasharray="5,3" />
  <circle cx="250" cy="230" r="5" fill="#1a73e8" />
  <circle cx="250" cy="250" r="5" fill="#34a853" />
  
  <!-- DBT Check Mark -->
  <circle cx="380" cy="200" r="40" fill="#34a853" opacity="0.2" />
  <path d="M360 200 L375 215 L400 185" stroke="#34a853" stroke-width="6" stroke-linecap="round" stroke-linejoin="round" fill="none" />
</svg>