<svg xmlns="http://www.w3.org/2000/svg" width="500" height="400" viewBox="0 0 500 400">
  <!-- Background Elements -->
  <rect x="0" y="0" width="500" height="400" fill="#f8f9fa" opacity="0.1" />
  <circle cx="80" cy="80" r="50" fill="#e8f0fe" />
  <circle cx="420" cy="320" r="40" fill="#e8f0fe" />
  
  <!-- Graduation Cap -->
  <rect x="150" y="120" width="200" height="5" fill="#1a73e8" />
  <path d="M250 80 L180 110 L250 140 L320 110 Z" fill="#1a73e8" />
  <path d="M320 110 L320 150" stroke="#1a73e8" stroke-width="3" />
  <circle cx="320" cy="155" r="5" fill="#1a73e8" />
  <path d="M210 125 L210 170 L290 170 L290 125" fill="#1a73e8" opacity="0.5" />
  
  <!-- Scholarship Document -->
  <rect x="150" y="200" width="200" height="150" rx="5" fill="white" stroke="#34a853" stroke-width="2" />
  <rect x="170" y="220" width="160" height="10" rx="2" fill="#e8f0fe" />
  <rect x="170" y="240" width="160" height="10" rx="2" fill="#e8f0fe" />
  <rect x="170" y="260" width="160" height="10" rx="2" fill="#e8f0fe" />
  <rect x="170" y="280" width="100" height="10" rx="2" fill="#e8f0fe" />
  
  <!-- Scholarship Badge -->
  <circle cx="350" cy="300" r="30" fill="#34a853" opacity="0.2" />
  <path d="M350 280 L340 290 L350 300 L360 290 Z" fill="#34a853" />
  <rect x="345" y="300" width="10" height="20" fill="#34a853" />
  
  <!-- Money Symbols -->
  <circle cx="400" cy="150" r="25" fill="#34a853" opacity="0.2" />
  <text x="390" y="158" font-family="Arial, sans-serif" font-size="24" font-weight="bold" fill="#34a853">₹</text>
  
  <circle cx="100" cy="200" r="25" fill="#34a853" opacity="0.2" />
  <text x="90" y="208" font-family="Arial, sans-serif" font-size="24" font-weight="bold" fill="#34a853">₹</text>
</svg>