<svg xmlns="http://www.w3.org/2000/svg" width="400" height="300" viewBox="0 0 400 300">
  <!-- Background Elements -->
  <rect x="0" y="0" width="400" height="300" fill="#f8f9fa" opacity="0.1" />
  <circle cx="350" cy="50" r="30" fill="#e8f0fe" />
  <circle cx="50" cy="250" r="20" fill="#e8f0fe" />
  
  <!-- Happy Student -->
  <circle cx="100" cy="100" r="30" fill="#e8f0fe" stroke="#34a853" stroke-width="2" />
  <circle cx="90" cy="90" r="5" fill="#34a853" />
  <circle cx="110" cy="90" r="5" fill="#34a853" />
  <path d="M85 110 C95 120, 105 120, 115 110" stroke="#34a853" stroke-width="2" fill="none" />
  
  <!-- Aadhaar Card -->
  <rect x="180" y="70" width="80" height="60" rx="5" fill="white" stroke="#1a73e8" stroke-width="2" />
  <rect x="190" y="80" width="20" height="20" rx="2" fill="#e8f0fe" />
  <rect x="190" y="105" width="20" height="5" rx="1" fill="#1a73e8" />
  <rect x="190" y="115" width="15" height="5" rx="1" fill="#1a73e8" />
  <rect x="220" y="85" width="30" height="5" rx="1" fill="#e8f0fe" />
  <rect x="220" y="95" width="30" height="5" rx="1" fill="#e8f0fe" />
  <rect x="220" y="105" width="30" height="5" rx="1" fill="#e8f0fe" />
  
  <!-- Bank Account -->
  <rect x="180" y="170" width="80" height="60" rx="5" fill="white" stroke="#34a853" stroke-width="2" />
  <rect x="190" y="180" width="60" height="5" rx="1" fill="#e8f0fe" />
  <rect x="190" y="190" width="60" height="5" rx="1" fill="#e8f0fe" />
  <rect x="190" y="200" width="60" height="5" rx="1" fill="#e8f0fe" />
  <rect x="190" y="210" width="40" height="5" rx="1" fill="#e8f0fe" />
  
  <!-- Successful Connection -->
  <path d="M220 130 L220 170" stroke="#34a853" stroke-width="2" stroke-dasharray="5,3" />
  <circle cx="220" cy="130" r="5" fill="#1a73e8" />
  <circle cx="220" cy="170" r="5" fill="#34a853" />
  
  <!-- Scholarship Approval -->
  <rect x="300" y="120" width="70" height="60" rx="5" fill="white" stroke="#34a853" stroke-width="2" />
  <path d="M310 150 L360 150" stroke="#34a853" stroke-width="2" />
  <path d="M310 160 L340 160" stroke="#34a853" stroke-width="2" />
  <path d="M310 140 L360 140" stroke="#34a853" stroke-width="2" />
  <path d="M310 130 L360 130" stroke="#34a853" stroke-width="2" />
  <path d="M315 175 L325 185 L345 165" stroke="#34a853" stroke-width="2" stroke-linecap="round" stroke-linejoin="round" fill="none" />
  
  <!-- Approval Arrow -->
  <path d="M260 100 C280 100, 280 120, 300 120" stroke="#34a853" stroke-width="2" fill="none" />
  <polygon points="295,115 300,120 295,125" fill="#34a853" />
  
  <!-- Money Transfer -->
  <path d="M335 180 C335 200, 335 220, 300 220 C265 220, 265 200, 265 180" stroke="#34a853" stroke-width="2" stroke-dasharray="5,3" fill="none" />
  <polygon points="265,185 265,180 270,185" fill="#34a853" />
  
  <!-- Rupee Symbol -->
  <circle cx="300" cy="220" r="20" fill="#e8f0fe" stroke="#34a853" stroke-width="2" />
  <text x="293" y="228" font-family="Arial, sans-serif" font-size="20" font-weight="bold" fill="#34a853">₹</text>
  
  <!-- Happy Face Emoji -->
  <circle cx="100" cy="220" r="25" fill="#e8f0fe" stroke="#34a853" stroke-width="2" />
  <circle cx="90" cy="210" r="3" fill="#34a853" />
  <circle cx="110" cy="210" r="3" fill="#34a853" />
  <path d="M85 225 C95 235, 105 235, 115 225" stroke="#34a853" stroke-width="2" fill="none" />
</svg>